<svg width="3696" height="555" viewBox="0 0 3696 555" fill="none" xmlns="http://www.w3.org/2000/svg">
<path d="M583.349 411.709C569.087 411.709 555.406 410.69 542.308 408.652C529.501 406.615 518.877 404.141 510.436 401.23V361.062C520.332 364.846 531.247 367.757 543.181 369.794C555.115 371.832 566.467 372.85 577.237 372.85C593.537 372.85 605.18 371.395 612.166 368.484C619.151 365.574 622.644 359.898 622.644 351.457C622.644 345.344 620.461 340.541 616.095 337.048C612.02 333.556 605.762 330.354 597.321 327.443C589.171 324.532 578.692 321.039 565.885 316.964C553.66 312.889 543.036 308.523 534.012 303.866C524.989 298.918 518.003 292.66 513.055 285.092C508.107 277.524 505.633 267.627 505.633 255.402C505.633 236.483 512.473 221.929 526.153 211.741C539.834 201.263 561.81 196.023 592.082 196.023C604.016 196.023 615.367 196.897 626.137 198.643C636.907 200.39 646.076 202.573 653.644 205.192V244.924C645.493 241.722 636.47 239.248 626.574 237.501C616.968 235.755 607.945 234.882 599.504 234.882C584.368 234.882 572.871 236.192 565.012 238.811C557.444 241.431 553.66 246.67 553.66 254.529C553.66 262.679 557.589 268.501 565.448 271.994C573.598 275.195 586.551 279.707 604.307 285.528C620.607 290.477 633.559 295.716 643.165 301.246C652.77 306.777 659.611 313.471 663.686 321.33C668.052 328.898 670.235 338.795 670.235 351.02C670.235 371.395 662.812 386.676 647.968 396.864C633.123 406.76 611.583 411.709 583.349 411.709Z" fill="#23273F"/>
<path d="M786.823 411.709C749.565 411.709 722.205 402.394 704.74 383.766C687.567 365.137 678.98 338.504 678.98 303.866C678.98 269.228 687.712 242.595 705.177 223.966C722.641 205.338 749.857 196.023 786.823 196.023C824.08 196.023 851.441 205.338 868.906 223.966C886.37 242.595 895.102 269.228 895.102 303.866C895.102 338.504 886.37 365.137 868.906 383.766C851.732 402.394 824.371 411.709 786.823 411.709ZM786.823 371.541C808.653 371.541 824.08 366.301 833.104 355.823C842.418 345.053 847.075 327.734 847.075 303.866C847.075 279.998 842.418 262.825 833.104 252.346C824.08 241.867 808.653 236.628 786.823 236.628C765.283 236.628 749.857 241.867 740.542 252.346C731.519 262.825 727.007 279.998 727.007 303.866C727.007 327.734 731.519 345.053 740.542 355.823C749.857 366.301 765.283 371.541 786.823 371.541Z" fill="#23273F"/>
<path d="M908.388 407.343V200.39H952.049L954.232 222.22C963.547 214.943 974.608 208.831 987.415 203.882C1000.51 198.643 1014.92 196.023 1030.64 196.023C1057.42 196.023 1076.92 202.282 1089.14 214.798C1101.37 227.314 1107.48 246.816 1107.48 273.303V407.343H1060.33V275.486C1060.33 259.477 1056.98 248.271 1050.29 241.867C1043.88 235.464 1031.66 232.262 1013.61 232.262C1002.84 232.262 992.218 234.445 981.739 238.811C971.551 243.177 962.965 248.853 955.979 255.839V407.343H908.388Z" fill="#23273F"/>
<path d="M1212.51 411.708C1193.88 411.708 1177.43 408.506 1163.17 402.103C1148.91 395.699 1137.85 385.075 1129.99 370.23C1122.13 355.385 1118.2 335.447 1118.2 310.415C1118.2 285.673 1122.42 264.862 1130.86 247.979C1139.3 230.806 1150.95 217.853 1165.79 209.121C1180.93 200.389 1197.95 196.023 1216.87 196.023C1229.39 196.023 1240.45 197.478 1250.06 200.389C1259.95 203.3 1269.41 207.811 1278.44 213.924V113.067H1326.03V407.342H1285.42L1282.36 386.821C1273.05 395.262 1262.86 401.52 1251.8 405.595C1240.74 409.67 1227.64 411.708 1212.51 411.708ZM1225.17 375.906C1246.42 375.906 1264.17 368.629 1278.44 354.076V250.599C1264.75 238.374 1247.58 232.261 1226.92 232.261C1206.83 232.261 1191.7 238.956 1181.51 252.345C1171.32 265.735 1166.23 285.237 1166.23 310.851C1166.23 335.592 1170.88 352.62 1180.2 361.935C1189.8 371.249 1204.79 375.906 1225.17 375.906Z" fill="#23273F"/>
<path d="M1451.97 411.709C1415.87 411.709 1387.93 402.831 1368.14 385.076C1348.35 367.32 1338.45 340.105 1338.45 303.429C1338.45 270.247 1346.89 244.051 1363.77 224.84C1380.66 205.629 1406.27 196.023 1440.62 196.023C1472.05 196.023 1495.63 204.319 1511.35 220.91C1527.36 237.21 1535.36 258.313 1535.36 284.219V322.64H1383.86C1386.19 342.724 1393.46 356.55 1405.69 364.118C1417.91 371.686 1436.54 375.47 1461.57 375.47C1472.05 375.47 1482.82 374.451 1493.88 372.414C1504.94 370.376 1514.55 367.757 1522.7 364.555V399.484C1513.38 403.559 1502.61 406.615 1490.39 408.652C1478.46 410.69 1465.65 411.709 1451.97 411.709ZM1383.86 291.641H1493.45V277.233C1493.45 262.97 1489.52 251.91 1481.66 244.051C1473.8 235.9 1460.55 231.825 1441.93 231.825C1419.8 231.825 1404.52 236.628 1396.08 246.234C1387.93 255.839 1383.86 270.975 1383.86 291.641Z" fill="#23273F"/>
<path d="M1548.67 407.343V200.39H1592.33L1594.95 224.403C1604.85 217.999 1616.64 212.178 1630.32 206.939C1644 201.699 1657.53 198.061 1670.92 196.023V232.262C1662.77 233.717 1653.89 235.9 1644.29 238.811C1634.97 241.431 1626.09 244.487 1617.65 247.98C1609.21 251.182 1602.08 254.529 1596.26 258.022V407.343H1548.67Z" fill="#23273F"/>
<path d="M1682.79 501.65V196.023H1723.83L1726.45 220.91C1735.77 212.469 1745.95 206.211 1757.01 202.136C1768.08 198.061 1781.17 196.023 1796.31 196.023C1826 196.023 1849.14 204.173 1865.73 220.474C1882.32 236.483 1890.62 263.116 1890.62 300.373C1890.62 337.631 1882.03 365.574 1864.86 384.202C1847.68 402.54 1824.25 411.709 1794.56 411.709C1769.53 411.709 1748.14 405.887 1730.38 394.244V501.65H1682.79ZM1782.34 375.907C1822.51 375.907 1842.59 350.583 1842.59 299.937C1842.59 275.486 1838.08 258.168 1829.06 247.98C1820.03 237.501 1804.9 232.262 1783.65 232.262C1762.4 232.262 1744.64 239.539 1730.38 254.093V357.569C1737.08 363.099 1744.5 367.611 1752.65 371.104C1761.09 374.306 1770.99 375.907 1782.34 375.907Z" fill="#419D8B"/>
<path d="M1958.82 411.708C1941.94 411.708 1929.13 407.633 1920.4 399.483C1911.67 391.042 1907.3 377.216 1907.3 358.005V113.067H1954.89V353.639C1954.89 361.789 1955.31 375.715 1955.31 375.715C1955.31 375.715 1963.85 400.368 1984.31 408.12C1978.78 410.157 1976.29 410.398 1976.29 410.398C1971.34 411.271 1965.52 411.708 1958.82 411.708Z" fill="#419D8B"/>
<path d="M2044.22 411.709C2031.12 411.709 2018.9 409.38 2007.54 404.723C1996.48 400.066 1987.6 393.08 1980.91 383.766C1974.22 374.16 1970.87 362.372 1970.87 348.4C1970.87 328.607 1977.56 312.744 1990.95 300.81C2004.63 288.585 2025.59 282.472 2053.82 282.472H2120.19V273.303C2120.19 263.407 2118.59 255.548 2115.39 249.726C2112.48 243.905 2106.94 239.684 2098.79 237.065C2090.94 234.445 2079.29 233.135 2063.87 233.135C2039.42 233.135 2016.57 236.774 1995.32 244.051V208.685C2004.63 204.901 2015.98 201.845 2029.37 199.516C2042.76 197.188 2057.17 196.023 2072.6 196.023C2102.87 196.023 2125.86 202.136 2141.58 214.361C2157.59 226.586 2165.6 246.525 2165.6 274.177V407.343H2124.99L2121.94 386.385C2113.49 394.535 2103.02 400.793 2090.5 405.16C2078.27 409.526 2062.85 411.709 2044.22 411.709ZM2056.88 377.653C2071.14 377.653 2083.51 375.325 2093.99 370.667C2104.76 365.719 2113.49 359.17 2120.19 351.02V314.781H2054.7C2040.73 314.781 2030.54 317.547 2024.13 323.077C2018.02 328.316 2014.97 336.466 2014.97 347.527C2014.97 358.297 2018.6 366.01 2025.88 370.667C2033.16 375.325 2043.49 377.653 2056.88 377.653Z" fill="#419D8B"/>
<path d="M2185.35 407.343V200.39H2229.01L2231.2 222.22C2240.51 214.943 2251.57 208.831 2264.38 203.882C2277.48 198.643 2291.88 196.023 2307.6 196.023C2334.38 196.023 2353.88 202.282 2366.11 214.798C2378.33 227.314 2384.45 246.816 2384.45 273.303V407.343H2337.29V275.486C2337.29 259.477 2333.94 248.271 2327.25 241.867C2320.85 235.464 2308.62 232.262 2290.58 232.262C2279.81 232.262 2269.18 234.445 2258.7 238.811C2248.52 243.177 2239.93 248.853 2232.94 255.839V407.343H2185.35Z" fill="#419D8B"/>
<path d="M0.609497 224.6C0.609497 166.395 47.8629 119.21 106.153 119.21H279.546C337.836 119.21 385.089 166.395 385.089 224.6V411.638C385.089 469.843 337.836 517.028 279.546 517.028H106.153C47.8629 517.028 0.609497 469.843 0.609497 411.638V224.6Z" fill="url(#paint0_linear_2105_97)"/>
<path d="M0.827102 217.778C0.827102 159.573 48.0805 112.388 106.371 112.388H279.763C338.053 112.388 385.306 159.573 385.306 217.778V404.816C385.306 463.021 338.053 507.022 279.763 507.022H106.37C48.0804 507.022 0.827102 463.021 0.827102 404.816V217.778Z" fill="url(#paint1_linear_2105_97)"/>
<path d="M0.609497 224.6C0.609497 166.395 47.8629 119.21 106.153 119.21H279.546C337.836 119.21 385.089 166.395 385.089 224.6V411.638C385.089 469.843 337.836 517.028 279.546 517.028H106.153C47.8629 517.028 0.609497 469.843 0.609497 411.638V224.6Z" fill="url(#paint2_linear_2105_97)"/>
<path d="M0.827102 217.778C0.827102 159.573 48.0805 112.388 106.371 112.388H279.763C338.053 112.388 385.306 159.573 385.306 217.778V404.816C385.306 463.021 338.053 507.022 279.763 507.022H106.37C48.0804 507.022 0.827102 463.021 0.827102 404.816V217.778Z" fill="url(#paint3_linear_2105_97)"/>
<path d="M0.609497 215.495C0.609497 158.472 47.2795 112.246 104.85 112.246H281.139C338.709 112.246 385.379 158.472 385.379 215.495V403.772C385.379 460.795 338.709 507.021 281.139 507.021H104.85C47.2795 507.021 0.609497 460.795 0.609497 403.772V215.495Z" fill="url(#paint4_linear_2105_97)" fill-opacity="0.8"/>
<path d="M223.839 267.736V336.408H257.704C262.345 336.408 266.711 335.531 270.801 333.776C274.892 331.942 278.471 329.469 281.539 326.358C284.607 323.248 287.006 319.619 288.737 315.471C290.546 311.244 291.451 306.778 291.451 302.072C291.451 297.366 290.546 292.94 288.737 288.792C287.006 284.565 284.607 280.896 281.539 277.786C278.471 274.675 274.892 272.242 270.801 270.488C266.711 268.653 262.345 267.736 257.704 267.736H223.839ZM223.839 404.96H189.974V233.4H257.704C263.918 233.4 269.897 234.237 275.639 235.912C281.382 237.507 286.731 239.82 291.687 242.851C296.721 245.802 301.284 249.391 305.374 253.619C309.544 257.766 313.084 262.392 315.994 267.497C318.983 272.601 321.265 278.065 322.838 283.887C324.49 289.709 325.316 295.771 325.316 302.072C325.316 311.483 323.546 320.377 320.006 328.751C316.466 337.046 311.628 344.304 305.492 350.525C299.357 356.746 292.159 361.652 283.899 365.241C275.718 368.83 266.986 370.624 257.704 370.624H223.839V404.96Z" fill="url(#paint5_linear_2105_97)"/>
<path d="M60.3497 284.629C60.3497 277.56 61.7 270.928 64.4005 264.733C67.101 258.538 70.7546 253.137 75.3613 248.53C80.0474 243.844 85.4881 240.151 91.6834 237.45C97.8786 234.75 104.511 233.399 111.58 233.399H189.973V267.592H111.58C109.197 267.592 106.973 268.029 104.908 268.903C102.843 269.777 101.016 271.008 99.4274 272.596C97.9183 274.105 96.7269 275.892 95.8532 277.957C94.9795 280.023 94.5427 282.247 94.5427 284.629C94.5427 287.012 94.9795 289.276 95.8532 291.42C96.7269 293.485 97.9183 295.312 99.4274 296.901C101.016 298.41 102.843 299.601 104.908 300.475C106.973 301.349 109.197 301.785 111.58 301.785H145.773C152.842 301.785 159.474 303.136 165.669 305.836C171.944 308.457 177.384 312.111 181.991 316.797C186.677 321.404 190.331 326.844 192.952 333.119C195.652 339.314 197.002 345.946 197.002 353.015C197.002 360.084 195.652 366.716 192.952 372.911C190.331 379.107 186.677 384.547 181.991 389.234C177.384 393.84 171.944 397.494 165.669 400.194C159.474 402.895 152.842 404.245 145.773 404.245H69.8809V370.052H145.773C148.155 370.052 150.379 369.615 152.444 368.742C154.509 367.868 156.297 366.677 157.806 365.167C159.394 363.579 160.625 361.752 161.499 359.687C162.373 357.622 162.81 355.398 162.81 353.015C162.81 350.632 162.373 348.409 161.499 346.343C160.625 344.278 159.394 342.491 157.806 340.982C156.297 339.394 154.509 338.163 152.444 337.289C150.379 336.415 148.155 335.978 145.773 335.978H111.58C104.511 335.978 97.8786 334.628 91.6834 331.928C85.4881 329.227 80.0474 325.573 75.3613 320.967C70.7546 316.281 67.101 310.84 64.4005 304.645C61.7 298.37 60.3497 291.698 60.3497 284.629Z" fill="url(#paint6_linear_2105_97)"/>
<circle cx="104.771" cy="153.745" r="12.2543" fill="#242424"/>
<rect x="97.1121" y="98.6018" width="15.3179" height="61.2716" rx="6" fill="url(#paint7_linear_2105_97)"/>
<circle cx="280.927" cy="153.745" r="12.2543" fill="#242424"/>
<rect x="273.269" y="98.6018" width="15.3179" height="61.2716" rx="6" fill="url(#paint8_linear_2105_97)"/>
<circle cx="193.614" cy="153.745" r="12.2543" fill="#242424"/>
<rect x="185.955" y="98.6018" width="15.3179" height="61.2716" rx="6" fill="url(#paint9_linear_2105_97)"/>
<path d="M2700.52 406.74H2595.8V111.318H2701.39C2731.1 111.318 2756.68 117.233 2778.13 129.061C2799.57 140.793 2816.07 157.67 2827.61 179.692C2839.24 201.714 2845.06 228.064 2845.06 258.741C2845.06 289.514 2839.24 315.959 2827.61 338.077C2816.07 360.196 2799.48 377.169 2777.84 388.997C2756.3 400.826 2730.53 406.74 2700.52 406.74ZM2658.26 353.224H2697.93C2716.39 353.224 2731.92 349.954 2744.52 343.415C2757.21 336.779 2766.73 326.538 2773.08 312.69C2779.52 298.746 2782.74 280.763 2782.74 258.741C2782.74 236.911 2779.52 219.072 2773.08 205.224C2766.73 191.376 2757.26 181.183 2744.66 174.644C2732.06 168.104 2716.53 164.835 2698.07 164.835H2658.26V353.224Z" fill="#23273F"/>
<path d="M2978.1 411.067C2955.69 411.067 2936.31 406.307 2919.96 396.787C2903.71 387.17 2891.16 373.803 2882.31 356.686C2873.47 339.472 2869.04 319.517 2869.04 296.822C2869.04 273.935 2873.47 253.932 2882.31 236.815C2891.16 219.601 2903.71 206.234 2919.96 196.714C2936.31 187.097 2955.69 182.289 2978.1 182.289C3000.5 182.289 3019.83 187.097 3036.08 196.714C3052.43 206.234 3065.03 219.601 3073.88 236.815C3082.72 253.932 3087.15 273.935 3087.15 296.822C3087.15 319.517 3082.72 339.472 3073.88 356.686C3065.03 373.803 3052.43 387.17 3036.08 396.787C3019.83 406.307 3000.5 411.067 2978.1 411.067ZM2978.38 363.465C2988.58 363.465 2997.09 360.58 3003.92 354.81C3010.74 348.944 3015.89 340.962 3019.35 330.865C3022.91 320.768 3024.69 309.276 3024.69 296.39C3024.69 283.503 3022.91 272.012 3019.35 261.914C3015.89 251.817 3010.74 243.835 3003.92 237.969C2997.09 232.103 2988.58 229.17 2978.38 229.17C2968.09 229.17 2959.44 232.103 2952.42 237.969C2945.5 243.835 2940.25 251.817 2936.7 261.914C2933.23 272.012 2931.5 283.503 2931.5 296.39C2931.5 309.276 2933.23 320.768 2936.7 330.865C2940.25 340.962 2945.5 348.944 2952.42 354.81C2959.44 360.58 2968.09 363.465 2978.38 363.465Z" fill="#23273F"/>
<path d="M3215.03 411.067C3192.33 411.067 3172.81 406.259 3156.46 396.643C3140.21 386.93 3127.71 373.467 3118.96 356.253C3110.3 339.039 3105.98 319.229 3105.98 296.822C3105.98 274.127 3110.35 254.221 3119.1 237.103C3127.95 219.89 3140.5 206.474 3156.75 196.858C3173 187.145 3192.33 182.289 3214.74 182.289C3234.07 182.289 3250.99 185.799 3265.51 192.819C3280.04 199.839 3291.53 209.696 3299.99 222.39C3308.45 235.084 3313.12 249.99 3313.98 267.107H3255.99C3254.36 256.048 3250.03 247.153 3243.01 240.421C3236.09 233.593 3227 230.179 3215.75 230.179C3206.23 230.179 3197.91 232.776 3190.79 237.969C3183.77 243.066 3178.29 250.518 3174.35 260.327C3170.41 270.136 3168.43 282.013 3168.43 295.957C3168.43 310.093 3170.36 322.114 3174.2 332.019C3178.15 341.924 3183.68 349.473 3190.79 354.666C3197.91 359.859 3206.23 362.456 3215.75 362.456C3222.77 362.456 3229.07 361.013 3234.65 358.128C3240.32 355.243 3244.98 351.06 3248.64 345.578C3252.39 340.001 3254.84 333.317 3255.99 325.528H3313.98C3313.02 342.453 3308.4 357.359 3300.13 370.245C3291.96 383.035 3280.66 393.036 3266.24 400.249C3251.81 407.461 3234.74 411.067 3215.03 411.067Z" fill="#23273F"/>
<path d="M3525.49 248.355L3469.23 251.817C3468.27 247.008 3466.2 242.681 3463.03 238.834C3459.86 234.892 3455.67 231.766 3450.48 229.458C3445.38 227.054 3439.28 225.852 3432.16 225.852C3422.64 225.852 3414.61 227.871 3408.07 231.91C3401.53 235.853 3398.26 241.142 3398.26 247.778C3398.26 253.067 3400.38 257.539 3404.61 261.193C3408.84 264.847 3416.1 267.78 3426.39 269.992L3466.49 278.07C3488.03 282.494 3504.09 289.61 3514.67 299.419C3525.25 309.228 3530.54 322.114 3530.54 338.077C3530.54 352.599 3526.26 365.341 3517.7 376.303C3509.24 387.266 3497.6 395.825 3482.79 401.98C3468.08 408.038 3451.11 411.067 3431.87 411.067C3402.54 411.067 3379.17 404.961 3361.77 392.748C3344.46 380.439 3334.31 363.706 3331.33 342.549L3391.77 339.376C3393.6 348.319 3398.02 355.147 3405.04 359.859C3412.06 364.475 3421.05 366.783 3432.02 366.783C3442.79 366.783 3451.44 364.715 3457.98 360.58C3464.62 356.349 3467.98 350.916 3468.08 344.28C3467.98 338.703 3465.63 334.135 3461.01 330.577C3456.39 326.922 3449.28 324.133 3439.66 322.21L3401.29 314.565C3379.65 310.237 3363.55 302.737 3352.97 292.062C3342.49 281.388 3337.24 267.78 3337.24 251.24C3337.24 237.007 3341.09 224.746 3348.78 214.456C3356.57 204.167 3367.49 196.233 3381.53 190.655C3395.67 185.078 3412.21 182.289 3431.15 182.289C3459.14 182.289 3481.16 188.203 3497.22 200.031C3513.37 211.86 3522.8 227.968 3525.49 248.355Z" fill="#23273F"/>
<defs>
<linearGradient id="paint0_linear_2105_97" x1="184.254" y1="508.193" x2="184.254" y2="484.928" gradientUnits="userSpaceOnUse">
<stop stop-color="#50A38F"/>
<stop offset="1" stop-color="#456073"/>
</linearGradient>
<linearGradient id="paint1_linear_2105_97" x1="192.958" y1="112.388" x2="192.958" y2="517.028" gradientUnits="userSpaceOnUse">
<stop stop-color="#568AB3"/>
<stop offset="1" stop-color="#23273F"/>
</linearGradient>
<linearGradient id="paint2_linear_2105_97" x1="184.254" y1="508.193" x2="184.254" y2="484.928" gradientUnits="userSpaceOnUse">
<stop stop-color="#50A38F"/>
<stop offset="1" stop-color="#456073"/>
</linearGradient>
<linearGradient id="paint3_linear_2105_97" x1="192.958" y1="112.388" x2="192.958" y2="517.028" gradientUnits="userSpaceOnUse">
<stop stop-color="#568AB3"/>
<stop offset="1" stop-color="#23273F"/>
</linearGradient>
<linearGradient id="paint4_linear_2105_97" x1="-39.4138" y1="79.4995" x2="-46.4067" y2="450.562" gradientUnits="userSpaceOnUse">
<stop stop-color="#66DAB7"/>
<stop offset="0.27" stop-color="#5AC1A2"/>
<stop offset="1" stop-color="#737373" stop-opacity="0"/>
</linearGradient>
<linearGradient id="paint5_linear_2105_97" x1="196.645" y1="250.556" x2="233.817" y2="411.632" gradientUnits="userSpaceOnUse">
<stop stop-color="white"/>
<stop offset="1" stop-color="white" stop-opacity="0.6"/>
</linearGradient>
<linearGradient id="paint6_linear_2105_97" x1="225.238" y1="252.462" x2="182.348" y2="338.242" gradientUnits="userSpaceOnUse">
<stop stop-color="white" stop-opacity="0.6"/>
<stop offset="1" stop-color="white"/>
</linearGradient>
<linearGradient id="paint7_linear_2105_97" x1="104.771" y1="98.6018" x2="104.771" y2="159.873" gradientUnits="userSpaceOnUse">
<stop stop-color="#434343"/>
<stop offset="0.475" stop-color="#737373"/>
<stop offset="1"/>
</linearGradient>
<linearGradient id="paint8_linear_2105_97" x1="280.928" y1="98.6018" x2="280.928" y2="159.873" gradientUnits="userSpaceOnUse">
<stop stop-color="#434343"/>
<stop offset="0.475" stop-color="#737373"/>
<stop offset="1"/>
</linearGradient>
<linearGradient id="paint9_linear_2105_97" x1="193.614" y1="98.6018" x2="193.614" y2="159.873" gradientUnits="userSpaceOnUse">
<stop stop-color="#434343"/>
<stop offset="0.475" stop-color="#737373"/>
<stop offset="1"/>
</linearGradient>
</defs>
</svg>
