<svg width="3695" height="555" viewBox="0 0 3695 555" fill="none" xmlns="http://www.w3.org/2000/svg">
<path d="M582.74 411.331C568.477 411.331 554.797 410.312 541.699 408.274C528.891 406.237 518.267 403.763 509.826 400.852V360.684C519.723 364.468 530.638 367.378 542.572 369.416C554.506 371.453 565.858 372.472 576.627 372.472C592.927 372.472 604.57 371.017 611.556 368.106C618.542 365.195 622.035 359.519 622.035 351.078C622.035 344.966 619.852 340.163 615.486 336.67C611.411 333.177 605.153 329.976 596.711 327.065C588.561 324.154 578.083 320.661 565.275 316.586C553.05 312.511 542.426 308.145 533.403 303.488C524.38 298.54 517.394 292.282 512.446 284.714C507.497 277.146 505.023 267.249 505.023 255.024C505.023 236.104 511.864 221.551 525.544 211.363C539.224 200.885 561.2 195.645 591.472 195.645C603.406 195.645 614.758 196.518 625.528 198.265C636.297 200.011 645.466 202.194 653.034 204.814V244.546C644.884 241.344 635.861 238.87 625.964 237.123C616.359 235.377 607.336 234.504 598.894 234.504C583.759 234.504 572.261 235.813 564.402 238.433C556.834 241.053 553.05 246.292 553.05 254.151C553.05 262.301 556.98 268.122 564.839 271.615C572.989 274.817 585.942 279.329 603.697 285.15C619.997 290.099 632.95 295.338 642.555 300.868C652.161 306.399 659.001 313.093 663.076 320.952C667.442 328.52 669.625 338.417 669.625 350.642C669.625 371.017 662.203 386.298 647.358 396.486C632.513 406.382 610.974 411.331 582.74 411.331Z" fill="white"/>
<path d="M786.213 411.331C748.956 411.331 721.595 402.016 704.131 383.387C686.957 364.759 678.371 338.126 678.371 303.488C678.371 268.85 687.103 242.217 704.567 223.588C722.032 204.96 749.247 195.645 786.213 195.645C823.471 195.645 850.831 204.96 868.296 223.588C885.76 242.217 894.493 268.85 894.493 303.488C894.493 338.126 885.76 364.759 868.296 383.387C851.123 402.016 823.762 411.331 786.213 411.331ZM786.213 371.162C808.044 371.162 823.471 365.923 832.494 355.444C841.808 344.675 846.465 327.356 846.465 303.488C846.465 279.62 841.808 262.447 832.494 251.968C823.471 241.489 808.044 236.25 786.213 236.25C764.674 236.25 749.247 241.489 739.933 251.968C730.909 262.447 726.398 279.62 726.398 303.488C726.398 327.356 730.909 344.675 739.933 355.444C749.247 365.923 764.674 371.162 786.213 371.162Z" fill="white"/>
<path d="M907.779 406.964V200.011H951.44L953.623 221.842C962.937 214.565 973.998 208.452 986.805 203.504C999.904 198.265 1014.31 195.645 1030.03 195.645C1056.81 195.645 1076.31 201.903 1088.54 214.419C1100.76 226.936 1106.87 246.438 1106.87 272.925V406.964H1059.72V275.108C1059.72 259.099 1056.37 247.893 1049.68 241.489C1043.27 235.086 1031.05 231.884 1013 231.884C1002.23 231.884 991.608 234.067 981.129 238.433C970.942 242.799 962.355 248.475 955.369 255.461V406.964H907.779Z" fill="white"/>
<path d="M1211.9 411.33C1193.27 411.33 1176.82 408.128 1162.56 401.724C1148.3 395.321 1137.24 384.697 1129.38 369.852C1121.52 355.007 1117.59 335.069 1117.59 310.036C1117.59 285.295 1121.81 264.483 1130.25 247.601C1138.69 230.428 1150.34 217.475 1165.18 208.743C1180.32 200.011 1197.34 195.645 1216.26 195.645C1228.78 195.645 1239.84 197.1 1249.45 200.011C1259.34 202.921 1268.8 207.433 1277.83 213.546V112.689H1325.42V406.964H1284.81L1281.76 386.443C1272.44 394.884 1262.25 401.142 1251.19 405.217C1240.13 409.292 1227.03 411.33 1211.9 411.33ZM1224.56 375.528C1245.81 375.528 1263.56 368.251 1277.83 353.697V250.221C1264.15 237.996 1246.97 231.883 1226.31 231.883C1206.22 231.883 1191.09 238.578 1180.9 251.967C1170.71 265.357 1165.62 284.859 1165.62 310.473C1165.62 335.214 1170.27 352.242 1179.59 361.556C1189.19 370.871 1204.18 375.528 1224.56 375.528Z" fill="white"/>
<path d="M1451.36 411.331C1415.27 411.331 1387.32 402.453 1367.53 384.697C1347.74 366.942 1337.84 339.727 1337.84 303.051C1337.84 269.869 1346.28 243.672 1363.16 224.462C1380.05 205.251 1405.66 195.645 1440.01 195.645C1471.44 195.645 1495.02 203.941 1510.74 220.532C1526.75 236.832 1534.75 257.935 1534.75 283.84V322.262H1383.25C1385.58 342.346 1392.85 356.172 1405.08 363.74C1417.3 371.308 1435.93 375.092 1460.96 375.092C1471.44 375.092 1482.21 374.073 1493.27 372.036C1504.33 369.998 1513.94 367.378 1522.09 364.177V399.105C1512.77 403.18 1502.01 406.237 1489.78 408.274C1477.85 410.312 1465.04 411.331 1451.36 411.331ZM1383.25 291.263H1492.84V276.855C1492.84 262.592 1488.91 251.531 1481.05 243.672C1473.19 235.522 1459.95 231.447 1441.32 231.447C1419.19 231.447 1403.91 236.25 1395.47 245.855C1387.32 255.461 1383.25 270.597 1383.25 291.263Z" fill="white"/>
<path d="M1548.06 406.964V200.011H1591.72L1594.34 224.025C1604.24 217.621 1616.03 211.8 1629.71 206.561C1643.39 201.321 1656.92 197.683 1670.31 195.645V231.884C1662.16 233.339 1653.28 235.522 1643.68 238.433C1634.36 241.053 1625.49 244.109 1617.04 247.602C1608.6 250.804 1601.47 254.151 1595.65 257.644V406.964H1548.06Z" fill="white"/>
<path d="M1682.18 501.272V195.645H1723.22L1725.84 220.532C1735.16 212.091 1745.34 205.833 1756.41 201.758C1767.47 197.683 1780.56 195.645 1795.7 195.645C1825.39 195.645 1848.53 203.795 1865.12 220.095C1881.71 236.104 1890.01 262.738 1890.01 299.995C1890.01 337.252 1881.42 365.195 1864.25 383.824C1847.07 402.162 1823.64 411.331 1793.95 411.331C1768.92 411.331 1747.53 405.509 1729.77 393.866V501.272H1682.18ZM1781.73 375.529C1821.9 375.529 1841.98 350.205 1841.98 299.558C1841.98 275.108 1837.47 257.789 1828.45 247.602C1819.42 237.123 1804.29 231.884 1783.04 231.884C1761.79 231.884 1744.03 239.161 1729.77 253.714V357.191C1736.47 362.721 1743.89 367.233 1752.04 370.726C1760.48 373.928 1770.38 375.529 1781.73 375.529Z" fill="#419D8B"/>
<path d="M1958.21 411.33C1941.33 411.33 1928.53 407.255 1919.79 399.105C1911.06 390.664 1906.69 376.838 1906.69 357.627V112.689H1954.29V353.261C1954.29 361.411 1954.7 375.337 1954.7 375.337C1954.7 375.337 1963.25 399.99 1983.7 407.741C1978.17 409.779 1975.68 410.02 1975.68 410.02C1970.73 410.893 1964.91 411.33 1958.21 411.33Z" fill="#419D8B"/>
<path d="M2043.61 411.331C2030.51 411.331 2018.29 409.002 2006.93 404.345C1995.87 399.688 1987 392.702 1980.3 383.387C1973.61 373.782 1970.26 361.994 1970.26 348.022C1970.26 328.229 1976.95 312.366 1990.34 300.432C2004.02 288.207 2024.98 282.094 2053.21 282.094H2119.58V272.925C2119.58 263.029 2117.98 255.17 2114.78 249.348C2111.87 243.527 2106.34 239.306 2098.19 236.687C2090.33 234.067 2078.68 232.757 2063.26 232.757C2038.81 232.757 2015.96 236.396 1994.71 243.672V208.307C2004.02 204.523 2015.38 201.467 2028.76 199.138C2042.15 196.81 2056.56 195.645 2071.99 195.645C2102.26 195.645 2125.26 201.758 2140.97 213.983C2156.98 226.208 2164.99 246.146 2164.99 273.798V406.964H2124.38L2121.33 386.007C2112.88 394.157 2102.41 400.415 2089.89 404.781C2077.66 409.147 2062.24 411.331 2043.61 411.331ZM2056.27 377.275C2070.53 377.275 2082.9 374.946 2093.38 370.289C2104.15 365.341 2112.88 358.792 2119.58 350.642V314.403H2054.09C2040.12 314.403 2029.93 317.168 2023.53 322.699C2017.41 327.938 2014.36 336.088 2014.36 347.149C2014.36 357.919 2017.99 365.632 2025.27 370.289C2032.55 374.946 2042.88 377.275 2056.27 377.275Z" fill="#419D8B"/>
<path d="M2184.74 406.964V200.011H2228.4L2230.59 221.842C2239.9 214.565 2250.96 208.452 2263.77 203.504C2276.87 198.265 2291.28 195.645 2306.99 195.645C2333.77 195.645 2353.27 201.903 2365.5 214.419C2377.72 226.936 2383.84 246.438 2383.84 272.925V406.964H2336.68V275.108C2336.68 259.099 2333.34 247.893 2326.64 241.489C2320.24 235.086 2308.01 231.884 2289.97 231.884C2279.2 231.884 2268.57 234.067 2258.09 238.433C2247.91 242.799 2239.32 248.475 2232.33 255.461V406.964H2184.74Z" fill="#419D8B"/>
<path d="M0 224.222C0 166.017 47.2534 118.832 105.543 118.832H278.936C337.226 118.832 384.479 166.017 384.479 224.222V411.26C384.479 469.465 337.226 516.65 278.936 516.65H105.543C47.2534 516.65 0 469.465 0 411.26V224.222Z" fill="url(#paint0_linear_2105_70)"/>
<path d="M0.217605 217.4C0.217605 159.195 47.471 112.01 105.761 112.01H279.154C337.444 112.01 384.697 159.195 384.697 217.4V404.438C384.697 462.643 337.444 506.643 279.154 506.643H105.761C47.4709 506.643 0.217605 462.643 0.217605 404.438V217.4Z" fill="url(#paint1_linear_2105_70)"/>
<path d="M0 224.222C0 166.017 47.2534 118.832 105.543 118.832H278.936C337.226 118.832 384.479 166.017 384.479 224.222V411.26C384.479 469.465 337.226 516.65 278.936 516.65H105.543C47.2534 516.65 0 469.465 0 411.26V224.222Z" fill="url(#paint2_linear_2105_70)"/>
<path d="M0.217605 217.4C0.217605 159.195 47.471 112.01 105.761 112.01H279.154C337.444 112.01 384.697 159.195 384.697 217.4V404.438C384.697 462.643 337.444 506.643 279.154 506.643H105.761C47.4709 506.643 0.217605 462.643 0.217605 404.438V217.4Z" fill="url(#paint3_linear_2105_70)"/>
<path d="M0 215.117C0 158.094 46.67 111.868 104.24 111.868H280.529C338.1 111.868 384.77 158.094 384.77 215.117V403.394C384.77 460.417 338.1 506.643 280.529 506.643H104.24C46.67 506.643 0 460.417 0 403.394V215.117Z" fill="url(#paint4_linear_2105_70)" fill-opacity="0.8"/>
<path d="M223.229 267.358V336.03H257.094C261.735 336.03 266.101 335.153 270.192 333.398C274.282 331.564 277.862 329.091 280.929 325.981C283.997 322.87 286.397 319.241 288.127 315.093C289.937 310.866 290.841 306.4 290.841 301.694C290.841 296.988 289.937 292.562 288.127 288.414C286.397 284.187 283.997 280.518 280.929 277.408C277.862 274.297 274.282 271.864 270.192 270.11C266.101 268.275 261.735 267.358 257.094 267.358H223.229ZM223.229 404.583H189.364V233.022H257.094C263.309 233.022 269.287 233.859 275.03 235.534C280.772 237.13 286.121 239.443 291.077 242.473C296.112 245.424 300.674 249.014 304.765 253.241C308.934 257.388 312.474 262.014 315.384 267.119C318.374 272.223 320.655 277.687 322.228 283.509C323.88 289.331 324.706 295.393 324.706 301.694C324.706 311.106 322.936 319.999 319.396 328.373C315.856 336.668 311.019 343.926 304.883 350.147C298.747 356.369 291.549 361.274 283.289 364.863C275.108 368.452 266.377 370.246 257.094 370.246H223.229V404.583Z" fill="url(#paint5_linear_2105_70)"/>
<path d="M59.7402 284.251C59.7402 277.182 61.0905 270.55 63.791 264.355C66.4915 258.16 70.1451 252.759 74.7518 248.152C79.4379 243.466 84.8786 239.773 91.0739 237.072C97.2691 234.372 103.901 233.021 110.97 233.021H189.364V267.214H110.97C108.587 267.214 106.363 267.651 104.298 268.525C102.233 269.399 100.406 270.63 98.8179 272.218C97.3088 273.727 96.1174 275.514 95.2437 277.58C94.37 279.645 93.9332 281.869 93.9332 284.251C93.9332 286.634 94.37 288.898 95.2437 291.042C96.1174 293.107 97.3088 294.934 98.8179 296.523C100.406 298.032 102.233 299.223 104.298 300.097C106.363 300.971 108.587 301.407 110.97 301.407H145.163C152.232 301.407 158.864 302.758 165.059 305.458C171.334 308.079 176.775 311.733 181.381 316.419C186.068 321.026 189.721 326.466 192.342 332.741C195.043 338.936 196.393 345.568 196.393 352.637C196.393 359.706 195.043 366.338 192.342 372.534C189.721 378.729 186.068 384.169 181.381 388.856C176.775 393.462 171.334 397.116 165.059 399.816C158.864 402.517 152.232 403.867 145.163 403.867H69.2714V369.674H145.163C147.546 369.674 149.77 369.237 151.835 368.364C153.9 367.49 155.687 366.299 157.196 364.79C158.785 363.201 160.016 361.374 160.889 359.309C161.763 357.244 162.2 355.02 162.2 352.637C162.2 350.255 161.763 348.031 160.889 345.966C160.016 343.9 158.785 342.113 157.196 340.604C155.687 339.016 153.9 337.785 151.835 336.911C149.77 336.037 147.546 335.6 145.163 335.6H110.97C103.901 335.6 97.2691 334.25 91.0739 331.55C84.8786 328.849 79.4379 325.196 74.7518 320.589C70.1451 315.903 66.4915 310.462 63.791 304.267C61.0905 297.992 59.7402 291.32 59.7402 284.251Z" fill="url(#paint6_linear_2105_70)"/>
<circle cx="104.162" cy="153.367" r="12.2543" fill="#242424"/>
<rect x="96.5024" y="98.2236" width="15.3179" height="61.2716" rx="6" fill="url(#paint7_linear_2105_70)"/>
<circle cx="280.318" cy="153.367" r="12.2543" fill="#242424"/>
<rect x="272.659" y="98.2236" width="15.3179" height="61.2716" rx="6" fill="url(#paint8_linear_2105_70)"/>
<circle cx="193.005" cy="153.367" r="12.2543" fill="#242424"/>
<rect x="185.346" y="98.2236" width="15.3179" height="61.2716" rx="6" fill="url(#paint9_linear_2105_70)"/>
<path d="M2699.91 406.362H2595.19V110.94H2700.78C2730.49 110.94 2756.07 116.854 2777.52 128.683C2798.96 140.415 2815.46 157.292 2827 179.314C2838.63 201.336 2844.45 227.686 2844.45 258.362C2844.45 289.136 2838.63 315.581 2827 337.699C2815.46 359.817 2798.87 376.791 2777.23 388.619C2755.69 400.448 2729.92 406.362 2699.91 406.362ZM2657.65 352.845H2697.32C2715.78 352.845 2731.31 349.576 2743.91 343.037C2756.6 336.401 2766.12 326.159 2772.47 312.312C2778.91 298.367 2782.13 280.384 2782.13 258.362C2782.13 236.533 2778.91 218.694 2772.47 204.846C2766.12 190.998 2756.65 180.805 2744.05 174.265C2731.45 167.726 2715.92 164.457 2697.46 164.457H2657.65V352.845Z" fill="#F9F9F9"/>
<path d="M2977.49 410.689C2955.08 410.689 2935.7 405.929 2919.35 396.409C2903.1 386.792 2890.55 373.425 2881.7 356.307C2872.86 339.094 2868.43 319.139 2868.43 296.444C2868.43 273.557 2872.86 253.554 2881.7 236.437C2890.55 219.223 2903.1 205.856 2919.35 196.335C2935.7 186.719 2955.08 181.911 2977.49 181.911C2999.89 181.911 3019.22 186.719 3035.47 196.335C3051.82 205.856 3064.42 219.223 3073.27 236.437C3082.11 253.554 3086.54 273.557 3086.54 296.444C3086.54 319.139 3082.11 339.094 3073.27 356.307C3064.42 373.425 3051.82 386.792 3035.47 396.409C3019.22 405.929 2999.89 410.689 2977.49 410.689ZM2977.77 363.087C2987.97 363.087 2996.48 360.202 3003.31 354.432C3010.13 348.566 3015.28 340.584 3018.74 330.487C3022.3 320.389 3024.08 308.898 3024.08 296.011C3024.08 283.125 3022.3 271.633 3018.74 261.536C3015.28 251.439 3010.13 243.457 3003.31 237.591C2996.48 231.725 2987.97 228.791 2977.77 228.791C2967.48 228.791 2958.83 231.725 2951.81 237.591C2944.89 243.457 2939.64 251.439 2936.09 261.536C2932.62 271.633 2930.89 283.125 2930.89 296.011C2930.89 308.898 2932.62 320.389 2936.09 330.487C2939.64 340.584 2944.89 348.566 2951.81 354.432C2958.83 360.202 2967.48 363.087 2977.77 363.087Z" fill="#F9F9F9"/>
<path d="M3214.42 410.689C3191.72 410.689 3172.2 405.881 3155.85 396.264C3139.6 386.552 3127.1 373.088 3118.35 355.875C3109.69 338.661 3105.37 318.851 3105.37 296.444C3105.37 273.749 3109.74 253.843 3118.49 236.725C3127.34 219.511 3139.89 206.096 3156.14 196.48C3172.39 186.767 3191.72 181.911 3214.13 181.911C3233.46 181.911 3250.38 185.421 3264.9 192.441C3279.43 199.461 3290.92 209.318 3299.38 222.012C3307.84 234.706 3312.51 249.611 3313.37 266.729H3255.38C3253.75 255.67 3249.42 246.774 3242.4 240.043C3235.48 233.215 3226.39 229.801 3215.14 229.801C3205.62 229.801 3197.3 232.398 3190.18 237.591C3183.16 242.687 3177.68 250.14 3173.74 259.949C3169.8 269.758 3167.83 281.635 3167.83 295.579C3167.83 309.715 3169.75 321.736 3173.6 331.641C3177.54 341.546 3183.07 349.095 3190.18 354.288C3197.3 359.481 3205.62 362.077 3215.14 362.077C3222.16 362.077 3228.46 360.635 3234.04 357.75C3239.71 354.865 3244.37 350.682 3248.03 345.2C3251.78 339.623 3254.23 332.939 3255.38 325.15H3313.37C3312.41 342.075 3307.79 356.981 3299.52 369.867C3291.35 382.657 3280.05 392.658 3265.63 399.871C3251.2 407.083 3234.13 410.689 3214.42 410.689Z" fill="#F9F9F9"/>
<path d="M3524.88 247.977L3468.62 251.439C3467.66 246.63 3465.59 242.303 3462.42 238.456C3459.25 234.513 3455.06 231.388 3449.87 229.08C3444.77 226.676 3438.67 225.474 3431.55 225.474C3422.03 225.474 3414 227.493 3407.46 231.532C3400.92 235.475 3397.65 240.764 3397.65 247.4C3397.65 252.689 3399.77 257.16 3404 260.815C3408.23 264.469 3415.49 267.402 3425.78 269.614L3465.88 277.692C3487.42 282.115 3503.48 289.232 3514.06 299.041C3524.64 308.85 3529.93 321.736 3529.93 337.699C3529.93 352.22 3525.65 364.962 3517.09 375.925C3508.63 386.888 3496.99 395.447 3482.18 401.602C3467.47 407.66 3450.5 410.689 3431.26 410.689C3401.93 410.689 3378.56 404.583 3361.16 392.37C3343.85 380.06 3333.7 363.328 3330.72 342.171L3391.16 338.998C3392.99 347.941 3397.41 354.769 3404.43 359.481C3411.45 364.097 3420.44 366.405 3431.41 366.405C3442.18 366.405 3450.83 364.337 3457.37 360.202C3464.01 355.971 3467.37 350.537 3467.47 343.902C3467.37 338.324 3465.02 333.757 3460.4 330.198C3455.78 326.544 3448.67 323.755 3439.05 321.832L3400.68 314.187C3379.04 309.859 3362.94 302.358 3352.36 291.684C3341.88 281.01 3336.64 267.402 3336.64 250.862C3336.64 236.629 3340.48 224.368 3348.18 214.078C3355.96 203.788 3366.88 195.855 3380.92 190.277C3395.06 184.699 3411.6 181.911 3430.54 181.911C3458.53 181.911 3480.55 187.825 3496.61 199.653C3512.76 211.482 3522.19 227.589 3524.88 247.977Z" fill="#F9F9F9"/>
<defs>
<linearGradient id="paint0_linear_2105_70" x1="183.645" y1="507.815" x2="183.645" y2="484.549" gradientUnits="userSpaceOnUse">
<stop stop-color="#50A38F"/>
<stop offset="1" stop-color="#456073"/>
</linearGradient>
<linearGradient id="paint1_linear_2105_70" x1="192.348" y1="112.01" x2="192.348" y2="516.65" gradientUnits="userSpaceOnUse">
<stop stop-color="#568AB3"/>
<stop offset="1" stop-color="#23273F"/>
</linearGradient>
<linearGradient id="paint2_linear_2105_70" x1="183.645" y1="507.815" x2="183.645" y2="484.549" gradientUnits="userSpaceOnUse">
<stop stop-color="#50A38F"/>
<stop offset="1" stop-color="#456073"/>
</linearGradient>
<linearGradient id="paint3_linear_2105_70" x1="192.348" y1="112.01" x2="192.348" y2="516.65" gradientUnits="userSpaceOnUse">
<stop stop-color="#568AB3"/>
<stop offset="1" stop-color="#23273F"/>
</linearGradient>
<linearGradient id="paint4_linear_2105_70" x1="-40.0233" y1="79.1213" x2="-47.0162" y2="450.183" gradientUnits="userSpaceOnUse">
<stop stop-color="#66DAB7"/>
<stop offset="0.27" stop-color="#5AC1A2"/>
<stop offset="1" stop-color="#737373" stop-opacity="0"/>
</linearGradient>
<linearGradient id="paint5_linear_2105_70" x1="196.036" y1="250.178" x2="233.207" y2="411.254" gradientUnits="userSpaceOnUse">
<stop stop-color="white"/>
<stop offset="1" stop-color="white" stop-opacity="0.6"/>
</linearGradient>
<linearGradient id="paint6_linear_2105_70" x1="224.629" y1="252.084" x2="181.739" y2="337.864" gradientUnits="userSpaceOnUse">
<stop stop-color="white" stop-opacity="0.6"/>
<stop offset="1" stop-color="white"/>
</linearGradient>
<linearGradient id="paint7_linear_2105_70" x1="104.161" y1="98.2236" x2="104.161" y2="159.495" gradientUnits="userSpaceOnUse">
<stop stop-color="#434343"/>
<stop offset="0.475" stop-color="#737373"/>
<stop offset="1"/>
</linearGradient>
<linearGradient id="paint8_linear_2105_70" x1="280.318" y1="98.2236" x2="280.318" y2="159.495" gradientUnits="userSpaceOnUse">
<stop stop-color="#434343"/>
<stop offset="0.475" stop-color="#737373"/>
<stop offset="1"/>
</linearGradient>
<linearGradient id="paint9_linear_2105_70" x1="193.005" y1="98.2236" x2="193.005" y2="159.495" gradientUnits="userSpaceOnUse">
<stop stop-color="#434343"/>
<stop offset="0.475" stop-color="#737373"/>
<stop offset="1"/>
</linearGradient>
</defs>
</svg>
